<svg width="16" height="16" viewBox="0 0 16 16" fill="none" xmlns="http://www.w3.org/2000/svg">
<path d="M7.92227 2.00449L8 2C8.34187 2 8.62367 2.25736 8.6622 2.58892L8.66667 2.66667V7.33333H13.3333C13.6752 7.33333 13.957 7.59067 13.9955 7.92227L14 8C14 8.34187 13.7427 8.62367 13.4111 8.6622L13.3333 8.66667H8.66667V13.3333C8.66667 13.6752 8.40933 13.957 8.07773 13.9955L8 14C7.65813 14 7.37633 13.7427 7.3378 13.4111L7.33333 13.3333V8.66667H2.66667C2.32477 8.66667 2.04299 8.40933 2.00449 8.07773L2 8C2 7.65813 2.25736 7.37633 2.58892 7.3378L2.66667 7.33333H7.33333V2.66667C7.33333 2.32477 7.59067 2.04299 7.92227 2.00449L8 2L7.92227 2.00449Z" fill="#D1D1D1"/>
</svg>
