<svg width="14" height="14" viewBox="0 0 18 18" fill="none" xmlns="http://www.w3.org/2000/svg">
<path d="M11.6535 14.2492L11.4355 15.1931C11.2681 15.9156 10.651 16.4388 9.92138 16.4947L9.79155 16.4997H8.20778C7.46569 16.4997 6.81637 16.016 6.59758 15.3174L6.56351 15.1919L6.34575 14.2492H11.6535ZM9 1.50073C12.0031 1.50073 14.4375 3.93518 14.4375 6.93823C14.4375 8.54062 13.7358 10.0082 12.3635 11.3188C12.337 11.344 12.3185 11.3765 12.3103 11.4121L11.9145 13.1242H9.5625V8.06272C9.5625 7.75207 9.31065 7.50022 9 7.50022C8.68935 7.50022 8.4375 7.75207 8.4375 8.06272V13.1242H6.0855L5.69101 11.4123C5.68276 11.3766 5.66426 11.3441 5.63776 11.3188C4.26462 10.0082 3.5625 8.54062 3.5625 6.93823C3.5625 3.93518 5.99695 1.50073 9 1.50073ZM8.4375 5.06305V6.18807C8.4375 6.49873 8.68935 6.75057 9 6.75057C9.31065 6.75057 9.5625 6.49873 9.5625 6.18807V5.06305C9.5625 4.75239 9.31065 4.50055 9 4.50055C8.68935 4.50055 8.4375 4.75239 8.4375 5.06305ZM12.2102 6.16205C11.9906 5.94238 11.6344 5.94238 11.4148 6.16205L10.6193 6.95756C10.3996 7.17723 10.3996 7.53337 10.6193 7.75305C10.8389 7.97272 11.1951 7.97272 11.4148 7.75305L12.2102 6.95754C12.4299 6.73788 12.4299 6.38172 12.2102 6.16205ZM6.58524 6.16205C6.36557 5.94238 6.00941 5.94238 5.78974 6.16205C5.57008 6.38172 5.57008 6.73788 5.78974 6.95754L6.58526 7.75305C6.80493 7.97272 7.16108 7.97272 7.38075 7.75305C7.60042 7.53337 7.60042 7.17723 7.38075 6.95756L6.58524 6.16205Z" fill="#44FFC7"/>
</svg>
