<svg width="14" height="14" viewBox="0 0 14 14" fill="none" xmlns="http://www.w3.org/2000/svg">
<path d="M8.06224 3.79165H11.5208C12.1839 3.79165 12.7322 4.28338 12.8208 4.92208L12.8303 5.01428L12.8333 5.10415V10.3541C12.8333 11.0488 12.2936 11.6174 11.6107 11.6636L11.5208 11.6666H2.47916C1.78449 11.6666 1.21587 11.1269 1.16968 10.444L1.16666 10.3541V6.1244L4.78737 6.12498L4.90194 6.11996C5.1298 6.10001 5.34855 6.0208 5.53637 5.8903L5.6276 5.82077L8.06224 3.79165ZM4.78737 2.33331C5.05603 2.33331 5.31725 2.41573 5.53637 2.56802L5.6276 2.63752L6.85416 3.65923L5.06744 5.14858L5.01795 5.18428C4.96627 5.21633 4.90846 5.23726 4.84824 5.24572L4.78737 5.24998L1.16666 5.2494V3.64581C1.16666 2.95114 1.70633 2.38252 2.38929 2.33634L2.47916 2.33331H4.78737Z" fill="#41BB72"/>
</svg>
