<svg width="20" height="20" viewBox="0 0 20 20" fill="none" xmlns="http://www.w3.org/2000/svg">
<path d="M6.72135 15.7862L12.138 3.70284C12.2792 3.38786 12.649 3.24699 12.964 3.38818C13.2527 3.51761 13.3952 3.83914 13.3082 4.13444L13.2787 4.21416L7.86198 16.2975C7.72079 16.6125 7.35098 16.7533 7.03601 16.6122C6.74727 16.4828 6.60484 16.1612 6.69187 15.8659L6.72135 15.7862L12.138 3.70284L6.72135 15.7862ZM1.84973 9.55826L5.39139 6.01656C5.63547 5.77248 6.0312 5.77248 6.27528 6.01656C6.49717 6.23844 6.51733 6.58567 6.33579 6.83034L6.27528 6.90044L3.17555 10.0002L6.27528 13.0999C6.51935 13.3439 6.51935 13.7397 6.27528 13.9838C6.05338 14.2057 5.70617 14.2258 5.46149 14.0443L5.39139 13.9838L1.84973 10.4421C1.62783 10.2202 1.60767 9.87301 1.78921 9.62834L1.84973 9.55826L5.39139 6.01656L1.84973 9.55826ZM13.7247 6.01656C13.9466 5.79467 14.2938 5.77449 14.5385 5.95604L14.6086 6.01656L18.1502 9.55826C18.3722 9.78009 18.3923 10.1273 18.2107 10.372L18.1502 10.4421L14.6086 13.9838C14.3645 14.2278 13.9688 14.2278 13.7247 13.9838C13.5028 13.7619 13.4827 13.4147 13.6642 13.17L13.7247 13.0999L16.8244 10.0002L13.7247 6.90044C13.4807 6.65636 13.4807 6.26064 13.7247 6.01656Z" fill="#E9690C"/>
</svg>
