<svg width="14" height="14" viewBox="0 0 14 14" fill="none" xmlns="http://www.w3.org/2000/svg">
<path d="M6.98712 5.82177H7.85687L7.64512 6.74697H6.76079L6.98712 5.82177ZM2.33334 2.62502C2.33334 1.81961 2.98626 1.16669 3.79168 1.16669H10.5C11.3054 1.16669 11.9583 1.81961 11.9583 2.62502V10.9375C11.9583 11.1791 11.7625 11.375 11.5208 11.375H3.20834C3.20834 11.6972 3.46951 11.9584 3.79168 11.9584H11.5208C11.7625 11.9584 11.9583 12.1542 11.9583 12.3959C11.9583 12.6375 11.7625 12.8334 11.5208 12.8334H3.79168C2.98626 12.8334 2.33334 12.1804 2.33334 11.375V2.62502ZM6.43079 4.41615L6.30054 4.94677L5.67636 4.94686L5.61699 4.95085C5.40345 4.97982 5.23886 5.16287 5.23886 5.38436L5.24285 5.44372C5.27182 5.65727 5.45487 5.82186 5.67636 5.82186L6.08645 5.82177L5.86012 6.74697L5.39584 6.7475L5.33648 6.75146C5.12293 6.78045 4.95834 6.9635 4.95834 7.185L4.96234 7.24438C4.99131 7.45788 5.17435 7.6225 5.39584 7.6225L5.64602 7.62197L5.57424 7.91784L5.56402 7.97646C5.54142 8.19078 5.68012 8.39413 5.89524 8.44675L5.95386 8.45695C6.16818 8.47959 6.37159 8.34087 6.4242 8.12574L6.5467 7.62197H7.44445L7.37591 7.92408L7.36658 7.98282C7.34709 8.19749 7.48879 8.3988 7.70468 8.44826L7.76342 8.4576C7.97803 8.47708 8.17933 8.33539 8.2288 8.1195L8.3422 7.62197L8.89094 7.6225L8.95027 7.61847C9.16383 7.58954 9.32844 7.40649 9.32844 7.185L9.32442 7.12561C9.29543 6.91205 9.11238 6.7475 8.89094 6.7475L8.54287 6.74697L8.75462 5.82177L9.17462 5.82186L9.234 5.81787C9.44756 5.78889 9.61212 5.60585 9.61212 5.38436L9.60815 5.32499C9.57916 5.11145 9.39611 4.94686 9.17462 4.94686L8.95529 4.94677L9.03106 4.6178L9.04045 4.55904C9.05988 4.34442 8.91818 4.14311 8.70229 4.09365L8.64355 4.08429C8.42894 4.06483 8.22763 4.20651 8.17817 4.4224L8.05753 4.94677H7.2012L7.28071 4.62405L7.29098 4.56544C7.31355 4.35113 7.17483 4.14776 6.9597 4.09513C6.72503 4.03772 6.48819 4.18145 6.43079 4.41615Z" fill="#6777FF"/>
</svg>
