<svg width="19" height="18" viewBox="0 0 19 18" fill="none" xmlns="http://www.w3.org/2000/svg">
<path d="M8.07144 3.75H11.0714C11.0714 2.92157 10.3999 2.25 9.57144 2.25C8.74299 2.25 8.07144 2.92157 8.07144 3.75ZM6.94644 3.75C6.94644 2.30025 8.12169 1.125 9.57144 1.125C11.0212 1.125 12.1964 2.30025 12.1964 3.75H16.5089C16.8196 3.75 17.0714 4.00184 17.0714 4.3125C17.0714 4.62316 16.8196 4.875 16.5089 4.875H15.5196L14.6406 13.9584C14.5011 15.4001 13.2896 16.5 11.8412 16.5H7.30171C5.85335 16.5 4.6418 15.4001 4.50229 13.9584L3.62325 4.875H2.63394C2.32328 4.875 2.07144 4.62316 2.07144 4.3125C2.07144 4.00184 2.32328 3.75 2.63394 3.75H6.94644ZM8.44644 7.3125C8.44644 7.00184 8.19459 6.75 7.88394 6.75C7.57328 6.75 7.32144 7.00184 7.32144 7.3125V12.9375C7.32144 13.2481 7.57328 13.5 7.88394 13.5C8.19459 13.5 8.44644 13.2481 8.44644 12.9375V7.3125ZM11.2589 6.75C10.9483 6.75 10.6964 7.00184 10.6964 7.3125V12.9375C10.6964 13.2481 10.9483 13.5 11.2589 13.5C11.5696 13.5 11.8214 13.2481 11.8214 12.9375V7.3125C11.8214 7.00184 11.5696 6.75 11.2589 6.75Z" fill="#E44D26"/>
</svg>
