<svg width="14" height="14" viewBox="0 0 14 14" fill="none" xmlns="http://www.w3.org/2000/svg">
<path d="M7.82186 1.46592C7.29476 1.25225 6.70525 1.25225 6.17815 1.46592L4.90034 1.98395L10.4958 4.15996L12.4641 3.39945C12.3849 3.33369 12.2949 3.27929 12.196 3.23924L7.82186 1.46592ZM12.8333 4.19485L7.43739 6.27964V12.6515C7.56794 12.6248 7.69668 12.5861 7.82186 12.5354L12.196 10.7621C12.5813 10.6059 12.8333 10.2317 12.8333 9.81604V4.19485ZM6.56239 12.6514V6.27964L1.16667 4.19495V9.81604C1.16667 10.2317 1.41874 10.6059 1.80398 10.7621L6.17815 12.5354C6.30327 12.5861 6.4319 12.6248 6.56239 12.6514ZM1.53576 3.39951L6.99989 5.51065L9.28481 4.62785L3.71837 2.46313L1.80398 3.23924C1.70514 3.27931 1.61506 3.33372 1.53576 3.39951Z" fill="#F63B7E"/>
</svg>
