<svg width="19" height="18" viewBox="0 0 19 18" fill="none" xmlns="http://www.w3.org/2000/svg">
<path d="M9.57144 1.5V6C9.57144 6.82843 10.243 7.5 11.0714 7.5H15.5714V15C15.5714 15.8285 14.8999 16.5 14.0714 16.5H8.96424C9.80484 15.6241 10.3214 14.4349 10.3214 13.125C10.3214 10.4326 8.13887 8.25 5.44644 8.25C4.78202 8.25 4.14863 8.3829 3.57144 8.62365V3C3.57144 2.17157 4.24301 1.5 5.07144 1.5H9.57144ZM10.6964 1.875V6C10.6964 6.20711 10.8644 6.375 11.0714 6.375H15.1964L10.6964 1.875ZM9.57144 13.125C9.57144 10.8468 7.72462 9 5.44644 9C3.16826 9 1.32144 10.8468 1.32144 13.125C1.32144 15.4032 3.16826 17.25 5.44644 17.25C7.72462 17.25 9.57144 15.4032 9.57144 13.125ZM5.82193 13.5L5.82227 15.3776C5.82227 15.5848 5.65438 15.7526 5.44727 15.7526C5.24017 15.7526 5.07227 15.5848 5.07227 15.3776L5.07193 13.5H3.19314C2.98624 13.5 2.81851 13.3322 2.81851 13.125C2.81851 12.9179 2.98624 12.75 3.19314 12.75H5.07179L5.07144 10.8745C5.07144 10.6673 5.23934 10.4995 5.44644 10.4995C5.65355 10.4995 5.82144 10.6673 5.82144 10.8745L5.82179 12.75H7.69388C7.90079 12.75 8.06851 12.9179 8.06851 13.125C8.06851 13.3322 7.90079 13.5 7.69388 13.5H5.82193Z" fill="#42A5F5"/>
</svg>
