<svg width="18" height="18" viewBox="0 0 18 18" fill="none" xmlns="http://www.w3.org/2000/svg">
<path d="M10.3658 4.875H14.8125C15.665 4.875 16.37 5.50723 16.4839 6.32841L16.4961 6.44696L16.5 6.5625V13.3125C16.5 14.2057 15.8061 14.9367 14.928 14.9961L14.8125 15H3.1875C2.29435 15 1.56327 14.3061 1.50389 13.428L1.5 13.3125V7.87425L6.1552 7.875L6.30251 7.86855C6.59547 7.8429 6.87672 7.74105 7.11821 7.57328L7.23551 7.48388L10.3658 4.875ZM6.1552 3C6.50062 3 6.83647 3.10597 7.11821 3.30176L7.23551 3.39113L8.8125 4.70475L6.5153 6.61963L6.45166 6.66553C6.38522 6.70674 6.31089 6.73365 6.23347 6.74452L6.1552 6.75L1.5 6.74925V4.6875C1.5 3.79435 2.19387 3.06327 3.07196 3.00389L3.1875 3H6.1552Z" fill="#41BB72"/>
</svg>
