<svg width="14" height="14" viewBox="0 0 14 14" fill="none" xmlns="http://www.w3.org/2000/svg">
<path d="M7.56934 5.292H10.7007L7.56934 2.16125V5.292ZM3.58401 1.30725H8.13867L11.5547 4.72267V11.5541C11.5547 11.8561 11.4347 12.1457 11.2212 12.3592C11.0076 12.5728 10.718 12.6928 10.416 12.6928H3.58459C3.43504 12.6928 3.28693 12.6634 3.14875 12.6062C3.01057 12.549 2.88501 12.4652 2.77926 12.3594C2.67351 12.2537 2.58964 12.1281 2.53244 11.9899C2.47525 11.8517 2.44585 11.7036 2.44592 11.5541V2.44533C2.44592 1.81358 2.95226 1.30725 3.58459 1.30725M3.58459 11.5547H10.4154V7L8.13867 9.27733L7.00001 8.13867L3.58401 11.5547M4.72267 5.29258C4.42068 5.29258 4.13106 5.41255 3.91751 5.62609C3.70397 5.83963 3.58401 6.12926 3.58401 6.43125C3.58416 6.73314 3.7042 7.02262 3.91772 7.23603C4.13125 7.44945 4.42078 7.56933 4.72267 7.56933C5.02456 7.56933 5.3141 7.44945 5.52763 7.23603C5.74115 7.02262 5.86119 6.73314 5.86134 6.43125C5.86134 6.12926 5.74137 5.83963 5.52783 5.62609C5.31429 5.41255 5.02467 5.29258 4.72267 5.29258Z" fill="#26A69A"/>
</svg>
