<svg width="14" height="14" viewBox="0 0 14 14" fill="none" xmlns="http://www.w3.org/2000/svg">
<path d="M1.75 1.75H12.25V12.25H1.75V1.75ZM4.50917 10.5233C4.7425 11.0192 5.20333 11.4275 5.99083 11.4275C6.86583 11.4275 7.46667 10.9608 7.46667 9.94V6.56833H6.475V9.91667C6.475 10.4183 6.27083 10.5467 5.95 10.5467C5.61167 10.5467 5.47167 10.3133 5.31417 10.0392L4.50917 10.5233ZM7.9975 10.4183C8.28917 10.99 8.87833 11.4275 9.8 11.4275C10.7333 11.4275 11.4333 10.9433 11.4333 10.0508C11.4333 9.22833 10.9608 8.86083 10.1208 8.49917L9.87583 8.39417C9.45 8.21333 9.26917 8.09083 9.26917 7.79917C9.26917 7.56 9.45 7.37333 9.74167 7.37333C10.0217 7.37333 10.2083 7.49583 10.3775 7.79917L11.1417 7.29167C10.8208 6.73167 10.3658 6.51583 9.74167 6.51583C8.86083 6.51583 8.295 7.07583 8.295 7.81667C8.295 8.62167 8.7675 9.00083 9.47917 9.30417L9.72417 9.40917C10.1792 9.6075 10.4475 9.73 10.4475 10.0683C10.4475 10.3483 10.185 10.5525 9.77667 10.5525C9.2925 10.5525 9.0125 10.3017 8.8025 9.95167L7.9975 10.4183Z" fill="#FFCA28"/>
</svg>
