<svg width="14" height="14" viewBox="0 0 14 14" fill="none" xmlns="http://www.w3.org/2000/svg">
<path d="M3.35941 2.31873H4.3995V3.35998H3.35941V5.96048C3.35934 6.09706 3.33236 6.2323 3.28002 6.35845C3.22768 6.48461 3.151 6.59923 3.05437 6.69576C2.95773 6.79228 2.84303 6.86883 2.71681 6.92103C2.5906 6.97323 2.45533 7.00005 2.31875 6.99998C2.45538 6.9999 2.59069 7.02675 2.71695 7.07898C2.84321 7.13122 2.95793 7.20782 3.05457 7.3044C3.15122 7.40099 3.22788 7.51568 3.28019 7.6419C3.33249 7.76813 3.35941 7.90343 3.35941 8.04006V10.6411H4.3995V11.6812H3.35941C2.80291 11.5412 2.31875 11.2128 2.31875 10.6411V8.56039C2.31875 8.28455 2.20917 8.02 2.01411 7.82494C1.81906 7.62989 1.55451 7.52031 1.27866 7.52031H0.758331V6.48023H1.27866C1.4153 6.48023 1.5506 6.4533 1.67682 6.401C1.80305 6.34869 1.91773 6.27203 2.01432 6.17539C2.11091 6.07874 2.18751 5.96402 2.23974 5.83776C2.29198 5.71151 2.31882 5.57619 2.31875 5.43956V3.35998C2.31859 3.22319 2.34542 3.08773 2.3977 2.96133C2.44997 2.83493 2.52666 2.72008 2.62338 2.62336C2.7201 2.52664 2.83495 2.44995 2.96135 2.39767C3.08775 2.3454 3.22322 2.31857 3.36 2.31873M10.6417 2.31873C10.7784 2.31873 10.9137 2.34565 11.0399 2.39795C11.1661 2.45026 11.2808 2.52692 11.3774 2.62357C11.474 2.72021 11.5506 2.83494 11.6028 2.96119C11.6551 3.08745 11.6819 3.22276 11.6818 3.35939V5.43956C11.6818 5.57619 11.7086 5.71151 11.7608 5.83776C11.8131 5.96402 11.8897 6.07874 11.9863 6.17539C12.0828 6.27203 12.1975 6.34869 12.3238 6.401C12.45 6.4533 12.5853 6.48023 12.7219 6.48023H13.2422V7.52031H12.7219C12.5853 7.52031 12.4501 7.54721 12.3239 7.59948C12.1977 7.65175 12.083 7.72836 11.9865 7.82494C11.8899 7.92152 11.8133 8.03618 11.761 8.16237C11.7087 8.28856 11.6818 8.42381 11.6818 8.56039V10.6411C11.6818 10.917 11.5723 11.1815 11.3772 11.3766C11.1821 11.5716 10.9176 11.6812 10.6417 11.6812H9.60108V10.6411H10.6417V8.04006C10.6417 7.76431 10.7512 7.49985 10.9462 7.30482C11.1411 7.10978 11.4055 7.00013 11.6812 6.99998C11.4054 6.99998 11.1409 6.8904 10.9458 6.69534C10.7507 6.50029 10.6412 6.23574 10.6412 5.95989V3.35939H9.6005V2.31873H10.6412M7 8.56039C7.138 8.56039 7.27035 8.61521 7.36793 8.7128C7.46551 8.81038 7.52033 8.94273 7.52033 9.08073C7.52033 9.21873 7.46551 9.35108 7.36793 9.44866C7.27035 9.54624 7.138 9.60106 7 9.60106C6.8621 9.60091 6.7299 9.54602 6.63244 9.44845C6.53499 9.35089 6.48025 9.21863 6.48025 9.08073C6.48025 8.94283 6.53499 8.81057 6.63244 8.713C6.7299 8.61544 6.8621 8.56055 7 8.56039ZM4.91983 8.56039C5.05773 8.56055 5.18993 8.61544 5.28738 8.713C5.38484 8.81057 5.43958 8.94283 5.43958 9.08073C5.43958 9.21863 5.38484 9.35089 5.28738 9.44845C5.18993 9.54602 5.05773 9.60091 4.91983 9.60106C4.8515 9.60106 4.78384 9.5876 4.72071 9.56145C4.65758 9.5353 4.60022 9.49698 4.5519 9.44866C4.50358 9.40034 4.46526 9.34298 4.43911 9.27985C4.41296 9.21672 4.3995 9.14906 4.3995 9.08073C4.3995 9.0124 4.41296 8.94473 4.43911 8.8816C4.46526 8.81847 4.50358 8.76111 4.5519 8.7128C4.60022 8.66448 4.65758 8.62615 4.72071 8.6C4.78384 8.57385 4.8515 8.56039 4.91983 8.56039ZM9.08075 8.56039C9.21865 8.56055 9.35085 8.61544 9.4483 8.713C9.54576 8.81057 9.6005 8.94283 9.6005 9.08073C9.6005 9.21863 9.54576 9.35089 9.4483 9.44845C9.35085 9.54602 9.21865 9.60091 9.08075 9.60106C8.94275 9.60106 8.8104 9.54624 8.71282 9.44866C8.61524 9.35108 8.56041 9.21873 8.56041 9.08073C8.56041 8.94273 8.61524 8.81038 8.71282 8.7128C8.8104 8.61521 8.94275 8.56039 9.08075 8.56039Z" fill="#FBC02D"/>
</svg>
