<svg width="14" height="14" viewBox="0 0 14 14" fill="none" xmlns="http://www.w3.org/2000/svg">
<path d="M9.77071 1.16724C8.07934 1.16724 6.70821 2.53836 6.70821 4.22974C6.70821 4.55223 6.75821 4.86369 6.85101 5.15642L1.5617 10.6282C1.00179 11.2073 1.06155 12.1427 1.69063 12.646C2.24154 13.0867 3.03735 13.0359 3.5277 12.5286L8.75601 7.11999C9.07392 7.23164 9.41558 7.29225 9.77071 7.29225C11.4621 7.29225 12.8332 5.92112 12.8332 4.22974C12.8332 3.93651 12.7919 3.65221 12.7144 3.38269C12.6717 3.23381 12.5533 3.11865 12.4034 3.0799C12.2534 3.04116 12.0941 3.08461 11.9846 3.19414L10.1272 5.0515L8.92517 3.84945L10.7691 2.00547C10.8795 1.89513 10.9227 1.73435 10.8825 1.58354C10.8424 1.43274 10.725 1.31474 10.5744 1.27388C10.3178 1.20425 10.0482 1.16724 9.77071 1.16724Z" fill="#F63B7E"/>
</svg>
