<svg width="19" height="18" viewBox="0 0 19 18" fill="none" xmlns="http://www.w3.org/2000/svg">
<path d="M7.88394 1.5H10.8827C11.1934 1.5 11.4452 1.75184 11.4452 2.0625C11.4452 2.34728 11.2336 2.58262 10.959 2.61986L10.8827 2.625H9.94569V15.375H10.8803C11.165 15.375 11.4003 15.5866 11.4376 15.8611L11.4428 15.9375C11.4428 16.2223 11.2311 16.4576 10.9565 16.4949L10.8803 16.5H7.88394C7.57328 16.5 7.32144 16.2481 7.32144 15.9375C7.32144 15.6527 7.53305 15.4174 7.80761 15.3801L7.88394 15.375H8.82069V2.625H7.88394C7.59917 2.625 7.36382 2.41339 7.32658 2.13883L7.32144 2.0625C7.32144 1.77772 7.53305 1.54238 7.80761 1.50514L7.88394 1.5ZM14.2557 3.74767C15.6016 3.74859 16.6925 4.83903 16.6939 6.18457L16.6961 11.8133C16.6974 13.1128 15.6805 14.1755 14.3985 14.2477L14.2587 14.2514L10.7005 14.251V3.74767H14.2557ZM8.06915 3.74767L8.06561 14.251H4.50894C3.16274 14.251 2.07144 13.1596 2.07144 11.8135V6.18517C2.07144 4.83897 3.16274 3.74767 4.50894 3.74767H8.06915Z" fill="#FFB300"/>
</svg>
