<svg width="14" height="14" viewBox="0 0 14 14" fill="none" xmlns="http://www.w3.org/2000/svg">
<path d="M2.99251 6.24754H5.17418L3.62835 4.70171C3.03918 4.70171 2.56085 4.22338 2.56085 3.62838C2.56085 3.34526 2.67332 3.07374 2.87351 2.87354C3.07371 2.67335 3.34523 2.56088 3.62835 2.56088C4.22335 2.56088 4.70168 3.03921 4.70168 3.62838L6.24751 5.17421V2.99254C6.04838 2.79155 5.93667 2.52006 5.93667 2.23713C5.93667 1.95419 6.04838 1.6827 6.24751 1.48171C6.34577 1.38188 6.4629 1.3026 6.59209 1.24849C6.72128 1.19437 6.85995 1.1665 7.00001 1.1665C7.14008 1.1665 7.27875 1.19437 7.40794 1.24849C7.53713 1.3026 7.65426 1.38188 7.75251 1.48171C8.16668 1.89588 8.16668 2.57254 7.75251 2.99254V5.17421L9.30418 3.62838C9.30418 3.34526 9.41665 3.07374 9.61684 2.87354C9.81704 2.67335 10.0886 2.56088 10.3717 2.56088C10.6548 2.56088 10.9263 2.67335 11.1265 2.87354C11.3267 3.07374 11.4392 3.34526 11.4392 3.62838C11.4392 4.22338 10.9608 4.70171 10.3717 4.70171L8.82585 6.24754H11.0075C11.2085 6.04841 11.48 5.9367 11.7629 5.9367C12.0459 5.9367 12.3174 6.04841 12.5183 6.24754C12.9383 6.66171 12.9383 7.33838 12.5183 7.75254C12.1042 8.16671 11.4275 8.16671 11.0075 7.75254H8.82585L10.3717 9.30421C10.9608 9.30421 11.4392 9.77671 11.4392 10.3717C11.4392 10.6548 11.3267 10.9264 11.1265 11.1265C10.9263 11.3267 10.6548 11.4392 10.3717 11.4392C9.77668 11.4392 9.30418 10.9609 9.30418 10.3717L7.75251 8.82588V11.0075C8.16668 11.4275 8.16668 12.1042 7.75251 12.5184C7.33835 12.9384 6.66168 12.9384 6.24751 12.5184C6.04838 12.3174 5.93667 12.0459 5.93667 11.763C5.93667 11.48 6.04838 11.2085 6.24751 11.0075V8.82588L4.70168 10.3717C4.70168 10.9609 4.22335 11.4392 3.62835 11.4392C3.34523 11.4392 3.07371 11.3267 2.87351 11.1265C2.67332 10.9264 2.56085 10.6548 2.56085 10.3717C2.56085 10.0886 2.67332 9.81707 2.87351 9.61687C3.07371 9.41668 3.34523 9.30421 3.62835 9.30421L5.17418 7.75254H2.99251C2.57251 8.16671 1.89585 8.16671 1.48168 7.75254C1.38185 7.65429 1.30257 7.53716 1.24846 7.40797C1.19434 7.27878 1.16647 7.14011 1.16647 7.00004C1.16647 6.85998 1.19434 6.72131 1.24846 6.59212C1.30257 6.46293 1.38185 6.3458 1.48168 6.24754C1.68267 6.04841 1.95416 5.9367 2.2371 5.9367C2.52003 5.9367 2.79152 6.04841 2.99251 6.24754Z" fill="#FFB300"/>
</svg>
