<svg width="21" height="18" viewBox="0 0 21 18" fill="none" xmlns="http://www.w3.org/2000/svg">
<path d="M4.5 2.62207H16.0695C16.4245 2.62207 16.7123 2.37024 16.7123 2.05957C16.7123 1.7748 16.4704 1.53945 16.1566 1.50221L16.0695 1.49707H4.5C4.14497 1.49707 3.85715 1.74891 3.85715 2.05957C3.85715 2.34435 4.09899 2.57969 4.41277 2.61694L4.5 2.62207ZM10.1858 16.4954L10.2857 16.5004C10.7253 16.5004 11.0876 16.2109 11.1371 15.8378L11.1429 15.7504V6.30787L13.9664 8.77748C14.2754 9.04778 14.7615 9.06855 15.0978 8.83973L15.1785 8.77733C15.4875 8.50695 15.5112 8.08155 15.2497 7.78733L15.1784 7.71668L10.8947 3.96923C10.5859 3.69904 10.1 3.67815 9.76372 3.90661L9.68298 3.96892L5.39433 7.71638C5.05937 8.0091 5.05899 8.48393 5.3935 8.77703C5.70228 9.04755 6.18846 9.0687 6.52488 8.8401L6.60568 8.77778L9.42858 6.31162V15.7504C9.42858 16.135 9.75943 16.452 10.1858 16.4954Z" fill="#45E90C"/>
</svg>
